<?xml version="1.0" encoding="UTF-8" standalone="no"?>
<!-- Created with Inkscape (http://www.inkscape.org/) -->

<svg
   xmlns:dc="http://purl.org/dc/elements/1.1/"
   xmlns:cc="http://creativecommons.org/ns#"
   xmlns:rdf="http://www.w3.org/1999/02/22-rdf-syntax-ns#"
   xmlns:svg="http://www.w3.org/2000/svg"
   xmlns="http://www.w3.org/2000/svg"
   xmlns:xlink="http://www.w3.org/1999/xlink"
   xmlns:sodipodi="http://sodipodi.sourceforge.net/DTD/sodipodi-0.dtd"
   xmlns:inkscape="http://www.inkscape.org/namespaces/inkscape"
   width="500"
   height="500"
   viewBox="0 0 132.29166 132.29167"
   version="1.1"
   id="svg8"
   inkscape:version="0.92.3 (2405546, 2018-03-11)"
   sodipodi:docname="プリスク.svg"
   inkscape:export-filename="プリスク.png"
   inkscape:export-xdpi="95.999992"
   inkscape:export-ydpi="95.999992">
  <defs
     id="defs2">
    <linearGradient
       inkscape:collect="always"
       id="linearGradient1039">
      <stop
         style="stop-color:#f55291;stop-opacity:1;"
         offset="0"
         id="stop1035" />
      <stop
         style="stop-color:#fbb4d0;stop-opacity:1"
         offset="1"
         id="stop1037" />
    </linearGradient>
    <linearGradient
       inkscape:collect="always"
       xlink:href="#linearGradient1039"
       id="linearGradient1402"
       gradientUnits="userSpaceOnUse"
       x1="39.249413"
       y1="129.84789"
       x2="11.563263"
       y2="26.521769"
       gradientTransform="matrix(1.674998,0,0,1.6793861,-28.090167,97.556385)" />
    <linearGradient
       inkscape:collect="always"
       xlink:href="#linearGradient1039"
       id="linearGradient1404"
       gradientUnits="userSpaceOnUse"
       x1="39.249413"
       y1="129.84789"
       x2="11.563263"
       y2="26.521769"
       gradientTransform="matrix(1.674998,0,0,1.6793861,-28.090167,97.556385)" />
    <linearGradient
       inkscape:collect="always"
       xlink:href="#linearGradient1039"
       id="linearGradient1408"
       gradientUnits="userSpaceOnUse"
       x1="39.249413"
       y1="129.84789"
       x2="11.563263"
       y2="26.521769"
       gradientTransform="matrix(1.1289558,-0.30128473,0.30250278,1.1244099,-126.64485,222.40483)" />
    <linearGradient
       inkscape:collect="always"
       xlink:href="#linearGradient1039"
       id="linearGradient1410"
       gradientUnits="userSpaceOnUse"
       x1="39.249413"
       y1="129.84789"
       x2="11.563263"
       y2="26.521769"
       gradientTransform="matrix(1.1289558,-0.30128473,0.30250278,1.1244099,-126.64485,222.40483)" />
    <linearGradient
       inkscape:collect="always"
       xlink:href="#linearGradient1039"
       id="linearGradient1414"
       gradientUnits="userSpaceOnUse"
       x1="39.249413"
       y1="129.84789"
       x2="11.563263"
       y2="26.521769"
       gradientTransform="matrix(1.674998,0,0,1.6793861,-195.74119,135.95266)" />
    <linearGradient
       inkscape:collect="always"
       xlink:href="#linearGradient1039"
       id="linearGradient1416"
       gradientUnits="userSpaceOnUse"
       x1="39.249413"
       y1="129.84789"
       x2="11.563263"
       y2="26.521769"
       gradientTransform="matrix(1.674998,0,0,1.6793861,-195.74119,135.95266)" />
    <linearGradient
       inkscape:collect="always"
       xlink:href="#linearGradient1039"
       id="linearGradient1420"
       gradientUnits="userSpaceOnUse"
       x1="39.249413"
       y1="129.84789"
       x2="11.563263"
       y2="26.521769"
       gradientTransform="matrix(1.1289558,0.30128473,-0.30250278,1.1244099,19.778494,105.7526)" />
    <linearGradient
       inkscape:collect="always"
       xlink:href="#linearGradient1039"
       id="linearGradient1422"
       gradientUnits="userSpaceOnUse"
       x1="39.249413"
       y1="129.84789"
       x2="11.563263"
       y2="26.521769"
       gradientTransform="matrix(1.1289558,0.30128473,-0.30250278,1.1244099,19.778494,105.7526)" />
  </defs>
  <sodipodi:namedview
     id="base"
     pagecolor="#ffffff"
     bordercolor="#666666"
     borderopacity="1.0"
     inkscape:pageopacity="0.0"
     inkscape:pageshadow="2"
     inkscape:zoom="0.5"
     inkscape:cx="250.00001"
     inkscape:cy="250"
     inkscape:document-units="px"
     inkscape:current-layer="layer1"
     showgrid="false"
     inkscape:pagecheckerboard="true"
     inkscape:snap-global="false"
     inkscape:window-width="1920"
     inkscape:window-height="1017"
     inkscape:window-x="-8"
     inkscape:window-y="-8"
     inkscape:window-maximized="1"
     units="px"
     inkscape:snap-page="true" />
  <metadata
     id="metadata5">
    <rdf:RDF>
      <cc:Work
         rdf:about="">
        <dc:format>image/svg+xml</dc:format>
        <dc:type
           rdf:resource="http://purl.org/dc/dcmitype/StillImage" />
        <dc:title />
      </cc:Work>
    </rdf:RDF>
  </metadata>
  <g
     inkscape:groupmode="layer"
     id="layer2"
     inkscape:label="ピンク枠"
     style="display:inline"
     transform="translate(0,-164.70831)"
     sodipodi:insensitive="true">
    <path
       inkscape:connector-curvature="0"
       id="path1033"
       d="m 78.699683,171.89246 c -2.382073,0 -4.40433,0.86061 -6.066241,2.58241 -1.606516,1.66628 -2.409419,3.69427 -2.409419,6.08259 0,2.33276 0.802903,4.33166 2.409419,5.99793 1.661911,1.66626 3.684168,2.50001 6.066241,2.50001 2.382073,0 4.376573,-0.83375 5.983083,-2.50001 1.66191,-1.66627 2.49258,-3.66517 2.49258,-5.99793 0,-2.38832 -0.83067,-4.41631 -2.49258,-6.08259 -1.60651,-1.7218 -3.60101,-2.58241 -5.983083,-2.58241 z m 0,5.58212 c 0.830956,0 1.551316,0.30528 2.160683,0.91625 0.55397,0.55542 0.83086,1.27795 0.83086,2.16663 0,0.77758 -0.27689,1.47174 -0.83086,2.08271 -0.609367,0.61097 -1.329727,0.91625 -2.160683,0.91625 -0.830956,0 -1.579075,-0.30528 -2.24384,-0.91625 -0.553971,-0.61097 -0.830861,-1.30513 -0.830861,-2.08271 0,-0.88868 0.27689,-1.61121 0.830861,-2.16663 0.664765,-0.61097 1.412884,-0.91625 2.24384,-0.91625 z m -31.659544,5.33192 c -9.528298,0 -20.80192,4.11048 -33.82023,12.33072 l 6.813942,11.83029 c 11.965766,-6.88724 21.300423,-10.33117 28.003466,-10.33117 10.636238,0 15.954143,3.13865 15.954143,9.41492 0,3.49915 -2.797399,9.10845 -8.3925,16.82881 -4.819545,6.49845 -9.390075,11.63599 -13.711045,15.41286 l 1.052125,0.85388 c -2.721041,0.0582 -5.939253,0.5829 -9.65624,1.57484 -3.584433,0.95658 -7.218348,2.62378 -10.900673,5.0015 -2.512884,1.66705 -5.700488,4.17149 -9.563427,7.51412 l 7.026297,7.15252 c 4.806911,-5.18885 10.682896,-8.70946 17.627741,-10.56284 3.845797,-1.02633 5.944028,-0.88872 6.29419,0.41285 0.630293,2.3428 -1.856656,7.74915 -7.461403,16.21995 -3.676047,5.52476 -7.29248,10.45539 -10.847954,14.79212 l 7.327754,5.81676 c 2.71278,-3.15526 5.881443,-7.36859 9.505511,-12.64036 6.130405,2.11059 12.190548,3.66173 18.180165,4.65401 l 2.745029,-8.98279 c -3.269837,-0.40281 -8.453969,-1.7495 -15.553191,-4.03996 2.62863,-4.80681 4.228189,-8.0834 4.798791,-9.82998 1.598532,-4.1732 1.997288,-7.74747 1.196911,-10.72247 -0.0016,-0.006 -0.003,-0.0101 -0.0045,-0.0155 16.527343,-16.65565 24.795113,-29.80334 24.795113,-39.44023 0,-8.4424 -3.323413,-14.60777 -9.971059,-18.49573 -5.262722,-3.16589 -12.409285,-4.74903 -21.439004,-4.74903 z m 37.503037,4.21591 c -3.50609,13.03222 -5.453006,23.28408 -5.850917,30.77226 l -1.618654,-0.92441 -24.762445,45.156 11.550361,7.16516 11.384045,-19.74537 c 5.87208,-5.77639 12.51965,-8.66425 19.94286,-8.66425 5.982884,0 8.974624,1.91604 8.974624,5.74845 0,3.16591 -1.96673,8.13701 -5.899924,14.91315 -3.43462,5.94301 -7.42361,11.77473 -11.96616,17.49558 l 11.4672,8.16455 c 13.683084,-18.05121 20.524984,-31.43661 20.524984,-40.15673 0,-6.49843 -2.24361,-11.44193 -6.73077,-14.83 -0.93014,-0.68984 -1.93107,-1.29686 -2.996,-1.82804 1.85305,-2.37643 3.63085,-5.11807 5.33265,-8.23063 2.77019,-5.23934 4.93058,-10.74102 6.4813,-16.50509 1.17054,-4.35093 1.86104,-8.55073 2.0701,-12.60026 l -9.48547,-1.33576 c -0.37841,4.08404 -1.10765,8.13405 -2.18815,12.1503 -2.73721,10.17428 -7.04342,18.14547 -12.916574,23.91377 -0.73414,-0.0408 -1.48321,-0.0631 -2.25201,-0.0631 -2.99144,0 -5.95541,0.58295 -8.89146,1.74934 l 2.90838,-5.33191 -6.6996,-3.82538 4.91983,0.51531 c 0.81291,-9.26913 2.81051,-19.81685 5.99199,-31.64247 z"
       style="font-style:normal;font-variant:normal;font-weight:normal;font-stretch:normal;font-size:50.79999924px;line-height:6.61458302px;font-family:'ＤＦＧブラッシュＳＱW12';-inkscape-font-specification:'ＤＦＧブラッシュＳＱW12, Normal';font-variant-ligatures:normal;font-variant-caps:normal;font-variant-numeric:normal;font-feature-settings:normal;text-align:start;letter-spacing:0px;word-spacing:0px;writing-mode:lr-tb;text-anchor:start;fill:#000000;fill-opacity:1;stroke:#f778a9;stroke-width:14.36829281;stroke-linecap:butt;stroke-linejoin:miter;stroke-miterlimit:4;stroke-dasharray:none;stroke-opacity:1" />
  </g>
  <g
     inkscape:groupmode="layer"
     id="layer3"
     inkscape:label="白枠"
     transform="translate(0,-164.70831)"
     style="display:inline"
     sodipodi:insensitive="true">
    <path
       inkscape:connector-curvature="0"
       style="font-style:normal;font-variant:normal;font-weight:normal;font-stretch:normal;font-size:50.79999924px;line-height:6.61458302px;font-family:'ＤＦＧブラッシュＳＱW12';-inkscape-font-specification:'ＤＦＧブラッシュＳＱW12, Normal';font-variant-ligatures:normal;font-variant-caps:normal;font-variant-numeric:normal;font-feature-settings:normal;text-align:start;letter-spacing:0px;word-spacing:0px;writing-mode:lr-tb;text-anchor:start;fill:#000000;fill-opacity:1;stroke:#ffffff;stroke-width:7.1841464;stroke-linecap:butt;stroke-linejoin:miter;stroke-miterlimit:4;stroke-dasharray:none;stroke-opacity:1"
       d="m 78.699682,171.89246 c -2.382075,0 -4.40433,0.86061 -6.066243,2.58241 -1.606515,1.66628 -2.409419,3.69427 -2.409419,6.08259 0,2.33276 0.802904,4.33166 2.409419,5.99793 1.661913,1.66626 3.684168,2.50001 6.066243,2.50001 2.382074,0 4.376564,-0.83375 5.983084,-2.50001 1.66191,-1.66627 2.49258,-3.66517 2.49258,-5.99793 0,-2.38832 -0.83067,-4.41631 -2.49258,-6.08259 -1.60652,-1.7218 -3.60101,-2.58241 -5.983084,-2.58241 z m 0,5.58212 c 0.830955,0 1.551314,0.30528 2.160684,0.91625 0.55397,0.55542 0.83086,1.27795 0.83086,2.16663 0,0.77758 -0.27689,1.47174 -0.83086,2.08271 -0.60937,0.61097 -1.329729,0.91625 -2.160684,0.91625 -0.830958,0 -1.579076,-0.30528 -2.243841,-0.91625 -0.553971,-0.61097 -0.830861,-1.30513 -0.830861,-2.08271 0,-0.88868 0.27689,-1.61121 0.830861,-2.16663 0.664765,-0.61097 1.412883,-0.91625 2.243841,-0.91625 z m -31.659546,5.33192 c -9.528295,0 -20.801917,4.11048 -33.820228,12.33072 l 6.813941,11.83029 c 11.965766,-6.88724 21.300425,-10.33117 28.003465,-10.33117 10.636238,0 15.954144,3.13865 15.954144,9.41492 0,3.49917 -2.7974,9.10845 -8.392501,16.82881 -4.819545,6.49845 -9.390073,11.636 -13.711044,15.41286 l 1.052127,0.85388 c -2.721041,0.0582 -5.939253,0.5829 -9.65624,1.57485 -3.584435,0.95657 -7.21835,2.62377 -10.900673,5.00149 -2.512884,1.66705 -5.70049,4.17149 -9.563428,7.51412 l 7.026298,7.15252 c 4.806911,-5.18885 10.682896,-8.70946 17.627741,-10.56282 3.845797,-1.02635 5.944028,-0.88874 6.29419,0.41283 0.630291,2.3428 -1.856658,7.74915 -7.461403,16.21995 -3.676047,5.52476 -7.29248,10.45539 -10.847956,14.79212 l 7.327756,5.81676 c 2.71278,-3.15526 5.881441,-7.36859 9.50551,-12.64036 6.130404,2.11059 12.190548,3.66173 18.180164,4.65401 l 2.74503,-8.98279 c -3.269839,-0.40281 -8.45397,-1.7495 -15.553193,-4.03996 2.628632,-4.80681 4.228189,-8.0834 4.798793,-9.82998 1.598531,-4.1732 1.997286,-7.74747 1.19691,-10.72247 -0.0016,-0.006 -0.003,-0.0101 -0.0045,-0.0155 16.527343,-16.65565 24.795113,-29.80334 24.795113,-39.44023 0,-8.4424 -3.323414,-14.60777 -9.971058,-18.49573 -5.262722,-3.16589 -12.409287,-4.74903 -21.439006,-4.74903 z m 37.50304,4.21591 c -3.50609,13.03222 -5.453009,23.28408 -5.85092,30.77226 l -1.618653,-0.92441 -24.762446,45.156 11.550361,7.16516 11.384046,-19.74537 c 5.872082,-5.77639 12.519652,-8.66425 19.942862,-8.66425 5.982884,0 8.974624,1.91604 8.974624,5.74845 0,3.16591 -1.96673,8.13701 -5.899924,14.91315 -3.43462,5.94301 -7.42361,11.77473 -11.96616,17.49558 l 11.4672,8.16455 c 13.683084,-18.05121 20.524984,-31.43661 20.524984,-40.15673 0,-6.49843 -2.24361,-11.44193 -6.73077,-14.83 -0.93014,-0.68984 -1.93107,-1.29686 -2.996,-1.82804 1.85304,-2.37641 3.63085,-5.11807 5.33265,-8.23063 2.77019,-5.23934 4.93058,-10.74102 6.4813,-16.50509 1.17054,-4.35093 1.86104,-8.55073 2.0701,-12.60026 l -9.48547,-1.33576 c -0.37841,4.08406 -1.10765,8.13406 -2.18815,12.1503 -2.73721,10.17428 -7.04343,18.14547 -12.916574,23.91377 -0.73414,-0.0408 -1.48321,-0.0631 -2.25201,-0.0631 -2.99144,0 -5.95541,0.58295 -8.89146,1.74934 l 2.90838,-5.33191 -6.6996,-3.82538 4.91982,0.51531 c 0.81292,-9.26913 2.81052,-19.81685 5.992,-31.64247 z"
       id="path994" />
  </g>
  <g
     inkscape:groupmode="layer"
     id="layer4"
     inkscape:label="文字"
     style="display:inline"
     transform="translate(0,-164.70831)">
    <g
       id="g852">
      <path
         d="m 87.175308,180.55708 q 0,3.49915 -2.49287,5.99855 -2.409771,2.4994 -5.982882,2.4994 -3.573112,0 -6.065979,-2.4994 -2.409772,-2.4994 -2.409772,-5.99855 0,-3.58248 2.409772,-6.08188 2.492867,-2.58271 6.065979,-2.58271 3.573111,0 5.982882,2.58271 2.49287,2.4994 2.49287,6.08188 z m -8.725039,25.49386 q 0,14.82977 -26.092019,40.7402 l -10.470045,-8.49795 q 6.481458,-5.66531 13.710774,-15.41296 8.392655,-11.58055 8.392655,-16.82929 0,-9.4144 -15.954356,-9.4144 -10.054567,0 -28.003217,10.33085 L 13.220223,195.1369 q 19.527467,-12.33037 33.81991,-12.33037 13.544583,0 21.438664,4.74886 9.971472,5.83193 9.971472,18.49555 z m 3.240729,-25.49386 q 0,-1.33302 -0.830957,-2.16615 -0.91405,-0.91645 -2.160485,-0.91645 -1.246434,0 -2.243582,0.91645 -0.830954,0.83313 -0.830954,2.16615 0,1.16638 0.830954,2.08283 0.997148,0.91644 2.243582,0.91644 1.246435,0 2.160485,-0.91644 0.830957,-0.91645 0.830957,-2.08283 z"
         style="font-style:normal;font-variant:normal;font-weight:normal;font-stretch:normal;font-size:50.79999924px;line-height:6.61458302px;font-family:'ＤＦＧブラッシュＳＱW12';-inkscape-font-specification:'ＤＦＧブラッシュＳＱW12, Normal';font-variant-ligatures:normal;font-variant-caps:normal;font-variant-numeric:normal;font-feature-settings:normal;text-align:start;letter-spacing:0px;word-spacing:0px;writing-mode:lr-tb;text-anchor:start;fill:url(#linearGradient1402);fill-opacity:1;stroke:#ffffff;stroke-width:3.96875;stroke-linecap:butt;stroke-linejoin:miter;stroke-miterlimit:4;stroke-dasharray:none;stroke-opacity:1"
         id="path970"
         inkscape:connector-curvature="0" />
      <path
         inkscape:connector-curvature="0"
         id="path972"
         style="font-style:normal;font-variant:normal;font-weight:normal;font-stretch:normal;font-size:50.79999924px;line-height:6.61458302px;font-family:'ＤＦＧブラッシュＳＱW12';-inkscape-font-specification:'ＤＦＧブラッシュＳＱW12, Normal';font-variant-ligatures:normal;font-variant-caps:normal;font-variant-numeric:normal;font-feature-settings:normal;text-align:start;letter-spacing:0px;word-spacing:0px;writing-mode:lr-tb;text-anchor:start;fill:url(#linearGradient1404);fill-opacity:1;stroke:none;stroke-width:0.38016108px;stroke-linecap:butt;stroke-linejoin:miter;stroke-opacity:1"
         d="m 87.175308,180.55708 q 0,3.49915 -2.49287,5.99855 -2.409771,2.4994 -5.982882,2.4994 -3.573112,0 -6.065979,-2.4994 -2.409772,-2.4994 -2.409772,-5.99855 0,-3.58248 2.409772,-6.08188 2.492867,-2.58271 6.065979,-2.58271 3.573111,0 5.982882,2.58271 2.49287,2.4994 2.49287,6.08188 z m -8.725039,25.49386 q 0,14.82977 -26.092019,40.7402 l -10.470045,-8.49795 q 6.481458,-5.66531 13.710774,-15.41296 8.392655,-11.58055 8.392655,-16.82929 0,-9.4144 -15.954356,-9.4144 -10.054567,0 -28.003217,10.33085 L 13.220223,195.1369 q 19.527467,-12.33037 33.81991,-12.33037 13.544583,0 21.438664,4.74886 9.971472,5.83193 9.971472,18.49555 z m 3.240729,-25.49386 q 0,-1.33302 -0.830957,-2.16615 -0.91405,-0.91645 -2.160485,-0.91645 -1.246434,0 -2.243582,0.91645 -0.830954,0.83313 -0.830954,2.16615 0,1.16638 0.830954,2.08283 0.997148,0.91644 2.243582,0.91644 1.246435,0 2.160485,-0.91644 0.830957,-0.91645 0.830957,-2.08283 z" />
      <path
         d="m 63.217361,270.09935 -2.745614,8.98321 q -8.984423,-1.48842 -18.18003,-4.65429 -5.436102,7.90765 -9.505276,12.64055 l -7.327559,-5.8167 q 5.333213,-6.5051 10.847284,-14.79228 8.407119,-12.70618 7.461681,-16.2204 -0.525244,-1.95235 -6.293937,-0.41285 -10.41727,2.78005 -17.627635,10.56333 l -7.026634,-7.15251 q 5.794407,-5.01396 9.563732,-7.51453 5.523487,-3.56657 10.900138,-5.00144 17.810159,-4.753 20.37635,4.7856 1.200559,4.4625 -1.197239,10.7223 -0.855905,2.61986 -4.798854,9.83009 10.648834,3.4357 15.553593,4.03992 z"
         style="font-style:normal;font-variant:normal;font-weight:normal;font-stretch:normal;font-size:50.79999924px;line-height:6.61458302px;font-family:'ＤＦＧブラッシュＳＱW12';-inkscape-font-specification:'ＤＦＧブラッシュＳＱW12, Normal';font-variant-ligatures:normal;font-variant-caps:normal;font-variant-numeric:normal;font-feature-settings:normal;text-align:start;letter-spacing:0px;word-spacing:0px;writing-mode:lr-tb;text-anchor:start;fill:url(#linearGradient1408);fill-opacity:1;stroke:#ffffff;stroke-width:3.96875;stroke-linecap:butt;stroke-linejoin:miter;stroke-miterlimit:4;stroke-dasharray:none;stroke-opacity:1"
         id="path976"
         inkscape:connector-curvature="0" />
      <path
         inkscape:connector-curvature="0"
         id="path978"
         style="font-style:normal;font-variant:normal;font-weight:normal;font-stretch:normal;font-size:50.79999924px;line-height:6.61458302px;font-family:'ＤＦＧブラッシュＳＱW12';-inkscape-font-specification:'ＤＦＧブラッシュＳＱW12, Normal';font-variant-ligatures:normal;font-variant-caps:normal;font-variant-numeric:normal;font-feature-settings:normal;text-align:start;letter-spacing:0px;word-spacing:0px;writing-mode:lr-tb;text-anchor:start;fill:url(#linearGradient1410);fill-opacity:1;stroke:none;stroke-width:0.38016108px;stroke-linecap:butt;stroke-linejoin:miter;stroke-opacity:1"
         d="m 63.217361,270.09935 -2.745614,8.98321 q -8.984423,-1.48842 -18.18003,-4.65429 -5.436102,7.90765 -9.505276,12.64055 l -7.327559,-5.8167 q 5.333213,-6.5051 10.847284,-14.79228 8.407119,-12.70618 7.461681,-16.2204 -0.525244,-1.95235 -6.293937,-0.41285 -10.41727,2.78005 -17.627635,10.56333 l -7.026634,-7.15251 q 5.794407,-5.01396 9.563732,-7.51453 5.523487,-3.56657 10.900138,-5.00144 17.810159,-4.753 20.37635,4.7856 1.200559,4.4625 -1.197239,10.7223 -0.855905,2.61986 -4.798854,9.83009 10.648834,3.4357 15.553593,4.03992 z" />
      <path
         d="m 118.28897,246.94661 q 0,13.08019 -20.524618,40.15701 l -11.467186,-8.16471 q 6.813825,-8.58126 11.965766,-17.49579 5.899778,-10.16422 5.899778,-14.91308 0,-5.74861 -8.97432,-5.74861 -11.134817,0 -19.942945,8.66458 l -11.38409,19.74525 -11.5503,-7.16494 24.7625,-45.15581 12.547426,7.16495 -2.908349,5.33205 q 4.404073,-1.74958 8.891242,-1.74958 9.888366,0 15.954356,4.49892 6.73074,5.08211 6.73074,14.82976 z"
         style="font-style:normal;font-variant:normal;font-weight:normal;font-stretch:normal;font-size:50.79999924px;line-height:6.61458302px;font-family:'ＤＦＧブラッシュＳＱW12';-inkscape-font-specification:'ＤＦＧブラッシュＳＱW12, Normal';font-variant-ligatures:normal;font-variant-caps:normal;font-variant-numeric:normal;font-feature-settings:normal;text-align:start;letter-spacing:0px;word-spacing:0px;writing-mode:lr-tb;text-anchor:start;fill:url(#linearGradient1414);fill-opacity:1;stroke:#ffffff;stroke-width:3.96875;stroke-linecap:butt;stroke-linejoin:miter;stroke-miterlimit:4;stroke-dasharray:none;stroke-opacity:1"
         id="path982"
         inkscape:connector-curvature="0" />
      <path
         inkscape:connector-curvature="0"
         id="path984"
         style="font-style:normal;font-variant:normal;font-weight:normal;font-stretch:normal;font-size:50.79999924px;line-height:6.61458302px;font-family:'ＤＦＧブラッシュＳＱW12';-inkscape-font-specification:'ＤＦＧブラッシュＳＱW12, Normal';font-variant-ligatures:normal;font-variant-caps:normal;font-variant-numeric:normal;font-feature-settings:normal;text-align:start;letter-spacing:0px;word-spacing:0px;writing-mode:lr-tb;text-anchor:start;fill:url(#linearGradient1416);fill-opacity:1;stroke:none;stroke-width:0.38016108px;stroke-linecap:butt;stroke-linejoin:miter;stroke-opacity:1"
         d="m 118.28897,246.94661 q 0,13.08019 -20.524618,40.15701 l -11.467186,-8.16471 q 6.813825,-8.58126 11.965766,-17.49579 5.899778,-10.16422 5.899778,-14.91308 0,-5.74861 -8.97432,-5.74861 -11.134817,0 -19.942945,8.66458 l -11.38409,19.74525 -11.5503,-7.16494 24.7625,-45.15581 12.547426,7.16495 -2.908349,5.33205 q 4.404073,-1.74958 8.891242,-1.74958 9.888366,0 15.954356,4.49892 6.73074,5.08211 6.73074,14.82976 z" />
      <path
         d="m 120.37668,205.55323 q -2.32608,8.6461 -6.48136,16.50511 -4.96349,9.07819 -10.78475,13.98157 l -6.460314,-7.22439 q 9.740164,-8.76002 14.122194,-25.04815 1.62076,-6.02438 2.18837,-12.15045 l 9.48525,1.33561 q -0.31357,6.07429 -2.06939,12.6007 z m -32.534996,15.17207 -9.224247,-0.96702 q 0.193013,-11.42744 5.925676,-32.73589 l 9.290162,2.06077 q -4.772217,17.73844 -5.991591,31.64214 z"
         style="font-style:normal;font-variant:normal;font-weight:normal;font-stretch:normal;font-size:50.79999924px;line-height:6.61458302px;font-family:'ＤＦＧブラッシュＳＱW12';-inkscape-font-specification:'ＤＦＧブラッシュＳＱW12, Normal';font-variant-ligatures:normal;font-variant-caps:normal;font-variant-numeric:normal;font-feature-settings:normal;text-align:start;letter-spacing:0px;word-spacing:0px;writing-mode:lr-tb;text-anchor:start;fill:url(#linearGradient1420);fill-opacity:1;stroke:#ffffff;stroke-width:3.96875;stroke-linecap:butt;stroke-linejoin:miter;stroke-miterlimit:4;stroke-dasharray:none;stroke-opacity:1"
         id="path988"
         inkscape:connector-curvature="0" />
      <path
         inkscape:connector-curvature="0"
         id="path990"
         style="font-style:normal;font-variant:normal;font-weight:normal;font-stretch:normal;font-size:50.79999924px;line-height:6.61458302px;font-family:'ＤＦＧブラッシュＳＱW12';-inkscape-font-specification:'ＤＦＧブラッシュＳＱW12, Normal';font-variant-ligatures:normal;font-variant-caps:normal;font-variant-numeric:normal;font-feature-settings:normal;text-align:start;letter-spacing:0px;word-spacing:0px;writing-mode:lr-tb;text-anchor:start;fill:url(#linearGradient1422);fill-opacity:1;stroke:none;stroke-width:0.38016108px;stroke-linecap:butt;stroke-linejoin:miter;stroke-opacity:1"
         d="m 120.37668,205.55323 q -2.32608,8.6461 -6.48136,16.50511 -4.96349,9.07819 -10.78475,13.98157 l -6.460314,-7.22439 q 9.740164,-8.76002 14.122194,-25.04815 1.62076,-6.02438 2.18837,-12.15045 l 9.48525,1.33561 q -0.31357,6.07429 -2.06939,12.6007 z m -32.534996,15.17207 -9.224247,-0.96702 q 0.193013,-11.42744 5.925676,-32.73589 l 9.290162,2.06077 q -4.772217,17.73844 -5.991591,31.64214 z" />
    </g>
  </g>
  <g
     inkscape:groupmode="layer"
     id="layer1"
     inkscape:label="穴埋め"
     style="display:inline">
    <circle
       style="opacity:1;vector-effect:none;fill:#ffffff;fill-opacity:1;stroke:none;stroke-width:0.8099488;stroke-linecap:butt;stroke-linejoin:miter;stroke-miterlimit:4;stroke-dasharray:none;stroke-dashoffset:0;stroke-opacity:1"
       id="path857"
       cx="78.390144"
       cy="15.828972"
       r="1.8708861" />
    <circle
       style="opacity:1;vector-effect:none;fill:#ffffff;fill-opacity:1;stroke:none;stroke-width:0.8099488;stroke-linecap:butt;stroke-linejoin:miter;stroke-miterlimit:4;stroke-dasharray:none;stroke-dashoffset:0;stroke-opacity:1"
       id="path857-7"
       cx="79.18528"
       cy="28.130049"
       r="1.8708861" />
  </g>
</svg>
